# xmcd
#
# Track frame offsets:
#	180
#	16705
#	29422
#	46879
#	57529
#	68997
#	78344
#	89431
#	105640
#	125160
#
# Disc length: 1872 seconds
#
# Revision: 0
# Processed by: cddbd v1.4PL0 Copyright (c) Steve Scherf et al.
# Submitted via: audiograbber 1.82.01
#
DISCID=82074e0a
DTITLE=Ramona and Hannes - Geboren um Frei zu sein
DYEAR=1997
DGENRE=Country
TTITLE0=When Will Be Together
TTITLE1=In Der Nacht
TTITLE2=Freiheit
TTITLE3=Tag Für Tag
TTITLE4=One Thousend Cowes
TTITLE5=Darling Steh´ Auf
TTITLE6=Bleid´ Du Selbst
TTITLE7=Standing On The Corner
TTITLE8=Kreuze
TTITLE9=Seefalke
EXTD=
EXTT0=
EXTT1=
EXTT2=
EXTT3=
EXTT4=
EXTT5=
EXTT6=
EXTT7=
EXTT8=
EXTT9=
PLAYORDER=
